<svg xmlns="http://www.w3.org/2000/svg" viewBox="0 0 120 72" fill="#000">
  <ellipse cx="60" cy="63" rx="22" ry="4.5"/>
  <path d="M49 49 Q60 54 71 49 L67 60 Q60 62.5 53 60 Z"/>
  <path d="M22 38 C22 25 38 19 60 19 C82 19 98 25 98 38 C98 49 82 51 60 51 C38 51 22 49 22 38 Z"/>
  <path d="M45 22 C48 9 72 9 75 22 C70 19 50 19 45 22 Z"/>
  <circle cx="60" cy="8.5" r="4"/>
  <path d="M26 33 C13 25 5 21 1.5 21.5 C0.5 24 2 26 7 29.5 C13 33.5 20 37 27 39 C26 37 26 35 26 33 Z"/>
  <path d="M95 29 C114 26 119 41 108 50 C104 53.5 99 54 95 53 C103 50 107 43 104 37 C101.5 32 99 31 95 31.5 Z"/>
</svg>
